<svg xmlns="http://www.w3.org/2000/svg" width="112" height="36" viewBox="0 0 112 36" fill="none"><g clip-path="url(#clip0_910_364)"><path d="M39.7584 16.1848C40.7883 17.0348 41.4258 18.1761 41.6832 19.5966H38.3363C38.2015 18.9289 37.895 18.3946 37.4291 17.9939C36.951 17.5933 36.338 17.3869 35.5779 17.3869C34.9649 17.3869 34.499 17.5326 34.1558 17.8118C33.8125 18.0911 33.6531 18.4796 33.6531 18.9653C33.6531 19.3538 33.788 19.6574 34.0577 19.888C34.3274 20.1187 34.6707 20.3009 35.0752 20.4344C35.4798 20.568 36.0683 20.7258 36.8284 20.9079C37.895 21.1386 38.7531 21.3936 39.4274 21.6486C40.0895 21.9036 40.6657 22.3164 41.1438 22.8749C41.6219 23.4334 41.8671 24.1862 41.8671 25.1454C41.8671 26.3353 41.4012 27.2944 40.4573 28.0351C39.5255 28.7757 38.2628 29.14 36.669 29.14C34.8423 29.14 33.3834 28.7393 32.2923 27.9258C31.1889 27.1123 30.5269 25.9589 30.2939 24.4533H33.7144C33.8002 25.1332 34.1067 25.6796 34.6216 26.0681C35.1488 26.4567 35.8231 26.6631 36.669 26.6631C37.282 26.6631 37.7356 26.5174 38.0666 26.226C38.3854 25.9346 38.5447 25.5582 38.5447 25.0847C38.5447 24.684 38.4099 24.3562 38.1279 24.1012C37.8459 23.8462 37.5027 23.6641 37.0858 23.5184C36.669 23.3848 36.0805 23.227 35.3204 23.0449C34.2784 22.8142 33.4202 22.5713 32.7704 22.3285C32.1206 22.0857 31.569 21.6971 31.1031 21.1629C30.6372 20.6287 30.4043 19.888 30.4043 18.9531C30.4043 17.7511 30.8702 16.7676 31.8019 16.0149C32.7336 15.2621 34.0086 14.8857 35.6514 14.8857C37.3555 14.91 38.7286 15.3349 39.7584 16.1848Z" fill="black"></path><path d="M48.0949 10.4175V28.9821H44.5273V10.4175H48.0949Z" fill="black"></path><path d="M64.4009 22.7049H54.115C54.164 23.9434 54.5073 24.854 55.1326 25.4368C55.7578 26.0196 56.5302 26.311 57.4619 26.311C58.2833 26.311 58.9821 26.1046 59.5215 25.7039C60.0732 25.3032 60.4165 24.7569 60.5759 24.0769H64.3519C64.168 25.0483 63.7634 25.9225 63.1627 26.6874C62.5497 27.4523 61.7773 28.0594 60.8211 28.4965C59.8648 28.9336 58.8105 29.1521 57.6458 29.1521C56.2727 29.1521 55.059 28.8607 54.0047 28.2901C52.9381 27.7073 52.1167 26.8938 51.5282 25.8253C50.9397 24.7569 50.6455 23.4941 50.6455 22.0371C50.6455 20.5801 50.9397 19.3174 51.5282 18.2368C52.1167 17.1562 52.9503 16.3305 54.0047 15.772C55.0713 15.2014 56.285 14.9221 57.6458 14.9221C59.0312 14.9221 60.2449 15.2014 61.2747 15.772C62.3168 16.3427 63.1136 17.1198 63.6776 18.1154C64.2415 19.111 64.5235 20.2402 64.5235 21.515C64.5235 21.855 64.4867 22.2557 64.4009 22.7049ZM60.0365 18.5646C59.3867 17.9818 58.5898 17.6904 57.6458 17.6904C56.6773 17.6904 55.8681 17.9818 55.2184 18.5646C54.5564 19.1474 54.2008 20.0095 54.1273 21.1508H60.9314C60.9804 20.0095 60.6862 19.1474 60.0365 18.5646Z" fill="black"></path><path d="M74.5519 25.9467V28.9821H72.6762C71.107 28.9821 69.9055 28.6057 69.0719 27.853C68.2382 27.1002 67.8214 25.8496 67.8214 24.0891V18.0668H65.8721V15.0799H67.8214V11.6439H71.3889V15.0799H74.5274V18.0668H71.3889V24.1376C71.3889 24.8054 71.5238 25.2789 71.7935 25.5461C72.0632 25.8132 72.5168 25.9467 73.1666 25.9467H74.5519Z" fill="black"></path><path d="M84.6047 25.9467V28.9821H82.7289C81.1597 28.9821 79.9583 28.6057 79.1246 27.853C78.2909 27.1002 77.8741 25.8496 77.8741 24.0891V18.0668H75.9248V15.0799H77.8741V11.6439H81.4417V15.0799H84.5802V18.0668H81.4417V24.1376C81.4417 24.8054 81.5765 25.2789 81.8462 25.5461C82.116 25.8132 82.5696 25.9467 83.2193 25.9467H84.6047Z" fill="black"></path><path d="M100.236 22.7049H89.95C89.999 23.9434 90.3423 24.854 90.9675 25.4368C91.5928 26.0196 92.3651 26.311 93.2969 26.311C94.1183 26.311 94.8171 26.1046 95.3565 25.7039C95.9082 25.3032 96.2515 24.7569 96.4108 24.0769H100.187C100.003 25.0483 99.5984 25.9225 98.9976 26.6874C98.3847 27.4523 97.6123 28.0594 96.656 28.4965C95.6998 28.9336 94.6454 29.1521 93.4808 29.1521C92.1077 29.1521 90.894 28.8607 89.8396 28.2901C88.773 27.7073 87.9516 26.8938 87.3632 25.8253C86.7747 24.7569 86.4805 23.4941 86.4805 22.0371C86.4805 20.5801 86.7747 19.3174 87.3632 18.2368C87.9516 17.1562 88.7853 16.3305 89.8396 15.772C90.9062 15.2014 92.1199 14.9221 93.4808 14.9221C94.8661 14.9221 96.0798 15.2014 97.1096 15.772C98.1517 16.3427 98.9486 17.1198 99.5125 18.1154C100.076 19.111 100.358 20.2402 100.358 21.515C100.358 21.855 100.322 22.2557 100.236 22.7049ZM95.8714 18.5646C95.2216 17.9818 94.4248 17.6904 93.4808 17.6904C92.5122 17.6904 91.7031 17.9818 91.0533 18.5646C90.3913 19.1474 90.0358 20.0095 89.9622 21.1508H96.7786C96.8154 20.0095 96.5212 19.1474 95.8714 18.5646Z" fill="black"></path><path d="M108.547 15.6506C109.405 15.1407 110.374 14.8857 111.428 14.8857V18.6739H110.386C107.775 18.6739 106.463 19.8759 106.463 22.2799V28.9821H102.896V15.0799H106.463V17.739C106.99 16.8526 107.677 16.1606 108.547 15.6506Z" fill="black"></path><path d="M0 23.4091L3.95989 21.6485V21.6728L12.2107 18.006L20.4737 26.918L0 36V23.4091Z" fill="#2BD8FF"></path><path d="M12.1985 17.9939L3.95996 9.11838V9.08196L24.4459 0V12.5909L20.4861 14.3393V14.3272L12.1985 17.9939Z" fill="#2BD8FF"></path></g><defs><clipPath id="clip0_910_364"><rect width="111.429" height="36" fill="white"></rect></clipPath></defs></svg>