<svg xmlns="http://www.w3.org/2000/svg" width="103" height="31" viewBox="0 0 103 31" fill="none"><g clip-path="url(#clip0_910_417)"><path fill-rule="evenodd" clip-rule="evenodd" d="M23.8805 0H29.9944C30.5287 0 30.9637 0.435557 30.9637 0.970572V7.09238C30.9637 7.62739 30.5287 8.06295 29.9944 8.06295H23.8805C23.3461 8.06295 22.9111 7.62739 22.9111 7.09238V0.970572C22.9111 0.435557 23.3461 0 23.8805 0Z" fill="#26DB8C"></path><path fill-rule="evenodd" clip-rule="evenodd" d="M11.2551 19.7304C11.0804 19.5555 10.9708 19.312 10.9708 19.0445V12.9261C10.9708 12.3911 11.4058 11.9555 11.9402 11.9555H14.2384C17.7698 11.9555 19.0234 10.498 19.0234 7.06496V2.54477C19.0234 1.91716 18.5918 1.39243 17.9787 1.26554C17.0163 1.07005 16.0195 0.967163 14.9988 0.967163C6.71334 0.970593 0 7.69257 0 15.9853C0 20.1317 1.67834 23.8871 4.39107 26.6033C7.10381 29.323 10.8544 31 14.9954 31C23.2775 31 29.9908 24.278 29.9908 15.9853C29.9908 14.9633 29.8881 13.9653 29.6928 13.0016C29.5695 12.3877 29.042 11.9555 28.4152 11.9555H23.9077C20.4791 11.9555 19.0234 13.2108 19.0234 16.7467V19.0479C19.0234 19.5829 18.5884 20.0185 18.0541 20.0185H11.9402C11.673 20.0151 11.4298 19.9053 11.2551 19.7304Z" fill="#3D82FF"></path><path fill-rule="evenodd" clip-rule="evenodd" d="M102.789 27.0251V30.5027H102.769L100.755 28.5375V30.4444H100.046V26.9668H100.063L102.077 28.9319V27.0251M96.9629 28.3386L96.5313 29.3606H97.3945L96.9629 28.3386ZM96.9698 26.9668L98.6173 30.4444H97.8397L97.6171 29.9128H96.3087L96.0861 30.4444H95.3085L96.9561 26.9668H96.9698ZM92.6266 26.9668C92.8904 26.9668 93.1199 27.008 93.3151 27.0903C93.5103 27.1726 93.6919 27.3029 93.8631 27.4778L93.4178 27.9922C93.2021 27.7385 92.9383 27.6116 92.6266 27.6116C92.3149 27.6116 92.0683 27.7179 91.8765 27.9237C91.6881 28.1329 91.5922 28.4004 91.5922 28.7296C91.5922 29.0588 91.6916 29.3264 91.8902 29.5356C92.0889 29.7482 92.3526 29.8511 92.6746 29.8511C92.8767 29.8511 93.0651 29.7928 93.2397 29.6796V29.1274H92.5033V28.517H93.9453V30.026C93.6165 30.3381 93.1918 30.4958 92.6746 30.4958C92.1505 30.4958 91.7224 30.3278 91.3833 29.9917C91.0476 29.6556 90.8764 29.2338 90.8764 28.7262C90.8764 28.2152 91.0408 27.7968 91.3696 27.4607C91.6984 27.1348 92.1163 26.9668 92.6266 26.9668ZM88.5267 27.9271C88.3315 27.7144 88.0848 27.6116 87.7834 27.6116C87.482 27.6116 87.232 27.7179 87.0402 27.9271C86.8449 28.1397 86.749 28.4072 86.749 28.7399C86.749 29.0657 86.8484 29.3332 87.0402 29.5424C87.232 29.7516 87.482 29.8545 87.7834 29.8545C88.0848 29.8545 88.3349 29.7516 88.5267 29.5424C88.7219 29.3332 88.8144 29.0657 88.8144 28.7399C88.8178 28.4107 88.7219 28.1397 88.5267 27.9271ZM87.7834 26.9668C88.2835 26.9668 88.7014 27.1348 89.037 27.4709C89.3727 27.807 89.5371 28.2323 89.5371 28.7433C89.5371 29.2509 89.3727 29.6727 89.037 30.0054C88.7014 30.3381 88.2835 30.5061 87.7834 30.5061C87.2765 30.5061 86.8621 30.3415 86.5298 30.0054C86.1976 29.6727 86.0332 29.2509 86.0332 28.7433C86.0332 28.2289 86.1976 27.8036 86.5298 27.4709C86.8621 27.1348 87.2765 26.9668 87.7834 26.9668ZM83.3444 27.0251V29.8202H84.7967V30.4444H82.6354V27.0251H83.3444ZM79.8131 26.9668C80.2994 26.9668 80.6967 27.0868 81.005 27.3235L80.6385 27.9099C80.3919 27.7144 80.1145 27.615 79.8062 27.615C79.4808 27.615 79.3198 27.7385 79.3198 27.9888C79.3198 28.0883 79.3644 28.1672 79.4534 28.222C79.539 28.2803 79.7103 28.3318 79.9603 28.3764C80.3885 28.4655 80.6865 28.5924 80.8612 28.7536C81.0358 28.9182 81.1215 29.1343 81.1215 29.4087C81.1215 29.7379 81.005 30.0054 80.7755 30.2078C80.546 30.4067 80.2275 30.5061 79.8302 30.5061C79.3027 30.5061 78.8609 30.3552 78.5081 30.05L78.8917 29.4601C79.0081 29.5801 79.152 29.6796 79.3301 29.7516C79.5048 29.8236 79.6829 29.8614 79.8542 29.8614C80.0357 29.8614 80.1727 29.8305 80.2686 29.7619C80.3645 29.6967 80.4159 29.6007 80.4159 29.4773C80.4159 29.3744 80.3679 29.2921 80.272 29.2303C80.1761 29.1686 80.0049 29.1137 79.7583 29.0657C79.337 28.9765 79.039 28.8462 78.8677 28.6747C78.6965 28.5067 78.6108 28.2872 78.6108 28.0197C78.6108 27.711 78.7204 27.4572 78.9396 27.2617C79.1588 27.0628 79.45 26.9668 79.8131 26.9668ZM74.8431 27.639H74.278V28.6267H74.8431C75.0144 28.6267 75.148 28.5821 75.2507 28.4964C75.3535 28.4107 75.4014 28.2906 75.4014 28.1329C75.4014 27.9785 75.3535 27.8551 75.2507 27.7693C75.148 27.6836 75.011 27.639 74.8431 27.639ZM74.9082 27.0251C75.2473 27.0251 75.535 27.1246 75.7679 27.32C76.0008 27.519 76.1173 27.7899 76.1173 28.1294C76.1173 28.3592 76.0625 28.5616 75.9495 28.7296C75.8364 28.8977 75.6823 29.028 75.4905 29.1137L76.2851 30.4375H75.4597L74.7438 29.2338H74.2745V30.4375H73.569V27.0251H74.9082ZM71.8666 27.0251V29.2132C71.8666 29.611 71.7536 29.9231 71.5241 30.1529C71.2981 30.3827 70.9727 30.4993 70.5514 30.4993C70.1301 30.4993 69.8081 30.3827 69.5786 30.1529C69.3526 29.9231 69.2361 29.6076 69.2361 29.2132V27.0251H69.9451V29.1686C69.9451 29.3812 69.9965 29.5458 70.0993 29.6693C70.202 29.7928 70.3493 29.8545 70.548 29.8545C70.7432 29.8545 70.8939 29.7928 70.9967 29.6693C71.1028 29.5458 71.1542 29.3778 71.1542 29.1686V27.0251H71.8666ZM66.7323 27.9271C66.5405 27.7144 66.2905 27.6116 65.9891 27.6116C65.6876 27.6116 65.4376 27.7179 65.2458 27.9271C65.0506 28.1397 64.9546 28.4072 64.9546 28.7399C64.9546 29.0657 65.0506 29.3332 65.2458 29.5424C65.441 29.7516 65.6876 29.8545 65.9891 29.8545C66.2905 29.8545 66.5405 29.7516 66.7323 29.5424C66.9276 29.3332 67.02 29.0657 67.02 28.7399C67.0235 28.4107 66.9276 28.1397 66.7323 27.9271ZM65.9891 26.9668C66.4891 26.9668 66.907 27.1348 67.2427 27.4709C67.5783 27.807 67.7427 28.2323 67.7427 28.7433C67.7427 29.2509 67.5749 29.6727 67.2427 30.0054C66.907 30.3381 66.4926 30.5061 65.9891 30.5061C65.4855 30.5061 65.0677 30.3415 64.7354 30.0054C64.4032 29.6727 64.2388 29.2509 64.2388 28.7433C64.2388 28.2289 64.4032 27.8036 64.7354 27.4709C65.0677 27.1348 65.4855 26.9668 65.9891 26.9668ZM63.016 27.0251L61.7761 29.0417V30.441H61.0705V29.0554L59.8203 27.0251H60.6424L61.4164 28.3455L62.1905 27.0251H63.016Z" fill="#3D82FF"></path><path fill-rule="evenodd" clip-rule="evenodd" d="M36.6972 10.8752C38.2145 9.39365 40.1292 8.65286 42.4378 8.65286C44.7463 8.65286 46.6713 9.39365 48.2058 10.8752C49.7437 12.3568 50.5109 14.2191 50.5109 16.4552C50.5109 18.6947 49.7471 20.5398 48.2229 21.9905C46.6953 23.4412 44.7669 24.1683 42.4378 24.1683C40.1086 24.1683 38.1905 23.4412 36.6835 21.9905C35.1764 20.5364 34.4229 18.6913 34.4229 16.4552C34.4229 14.2191 35.1798 12.3568 36.6972 10.8752ZM42.4378 12.422C41.4136 12.422 40.5642 12.8061 39.8894 13.5709C39.2181 14.3357 38.879 15.2994 38.879 16.4552C38.879 17.5938 39.2147 18.5369 39.8894 19.2811C40.5642 20.0254 41.4102 20.3992 42.4378 20.3992C43.4824 20.3992 44.3422 20.0254 45.0135 19.2811C45.6848 18.5335 46.0239 17.5938 46.0239 16.4552C46.0239 15.296 45.6882 14.3357 45.0135 13.5709C44.3422 12.8061 43.479 12.422 42.4378 12.422ZM56.7139 10.6249C57.6969 9.30791 59.1937 8.65286 61.2043 8.65286C63.2149 8.65286 64.8487 9.38336 66.116 10.8478C67.3799 12.3088 68.0135 14.1711 68.0135 16.4277C68.0135 18.6844 67.3799 20.5398 66.116 21.9939C64.8487 23.4447 63.2149 24.1717 61.2043 24.1717C59.3752 24.1717 57.9606 23.623 56.9571 22.5255V30.6536H52.5283V8.94781H56.5049L56.7139 10.6249ZM60.1185 12.422C58.793 12.422 57.738 13.0496 56.9536 14.3082V18.5198C57.7175 19.775 58.7724 20.406 60.1185 20.406C61.1426 20.406 61.9715 20.0494 62.6052 19.3326C63.2388 18.6158 63.554 17.6487 63.554 16.4312C63.554 15.2137 63.2388 14.2431 62.6052 13.516C61.9715 12.7855 61.1426 12.422 60.1185 12.422ZM74.7406 3.99892V8.94781H79.1111V12.6003H74.7406V18.2557C74.7406 18.9039 74.9324 19.4046 75.3126 19.7579C75.6928 20.1111 76.2066 20.286 76.8471 20.286C77.6314 20.286 78.2856 20.1385 78.8063 19.8436L79.9229 23.2595C78.8782 23.8665 77.7102 24.1717 76.4292 24.1717C74.5419 24.1717 73.0485 23.6642 71.9559 22.6421C70.8599 21.6201 70.3152 20.1797 70.3152 18.314C70.3152 10.1585 70.3152 11.6778 70.3152 4.00235H74.7406V3.99892ZM86.4923 8.94781V23.8768H82.0636V8.94781H86.4923ZM82.4404 2.42474C82.9336 1.9446 83.5501 1.70453 84.2934 1.70453C85.0366 1.70453 85.6532 1.9446 86.1464 2.42474C86.6396 2.90488 86.8862 3.50849 86.8862 4.23556C86.8862 4.96263 86.6396 5.56624 86.1464 6.04638C85.6532 6.52652 85.0366 6.77002 84.2934 6.77002C83.5501 6.77002 82.9302 6.52995 82.4404 6.04638C81.9471 5.56624 81.7039 4.96263 81.7039 4.23556C81.7005 3.50849 81.9471 2.90488 82.4404 2.42474ZM96.4322 8.65286C99.1621 8.65286 101.262 9.79148 102.728 12.0687L99.5628 14.3665C98.8812 13.053 97.8468 12.3945 96.4596 12.3945C95.3738 12.3945 94.5244 12.7787 93.9147 13.5434C93.3016 14.3082 92.9933 15.272 92.9933 16.4312C92.9933 17.5904 93.305 18.5472 93.9284 19.3017C94.5484 20.0562 95.4047 20.4335 96.4904 20.4335C97.8776 20.4335 98.9292 19.775 99.6553 18.4615L102.758 20.7867C101.293 23.0434 99.1929 24.1717 96.463 24.1717C94.1339 24.1717 92.2295 23.4447 90.7533 21.9939C89.2736 20.5398 88.5372 18.6844 88.5372 16.4277C88.5372 14.1676 89.277 12.3088 90.7533 10.8478C92.2295 9.38336 94.1236 8.65286 96.4322 8.65286Z" fill="#617085"></path></g><defs><clipPath id="clip0_910_417"><rect width="102.789" height="31" fill="white"></rect></clipPath></defs></svg>