<svg xmlns="http://www.w3.org/2000/svg" width="130" height="31" viewBox="0 0 130 31" fill="none"><g clip-path="url(#clip0_910_399)"><path d="M47.7058 8.3265H50.7824V22.8214H47.7058V20.7324C46.5449 22.378 44.8905 23.1959 42.7234 23.1959C40.7691 23.1959 39.0954 22.4568 37.7119 20.9788C36.3284 19.5007 35.6318 17.6974 35.6318 15.569C35.6318 13.4209 36.3284 11.6177 37.7119 10.1494C39.0954 8.68123 40.7691 7.9422 42.7234 7.9422C44.8905 7.9422 46.5449 8.75021 47.7058 10.3761V8.3265ZM39.9951 18.8996C40.8465 19.7766 41.9204 20.22 43.2071 20.22C44.4938 20.22 45.5677 19.7766 46.4191 18.8996C47.2705 18.0226 47.6962 16.9091 47.6962 15.5789C47.6962 14.2486 47.2705 13.1351 46.4191 12.2582C45.5677 11.3812 44.4938 10.9377 43.2071 10.9377C41.9204 10.9377 40.8465 11.3812 39.9951 12.2582C39.1437 13.1351 38.7181 14.2486 38.7181 15.5789C38.7181 16.9091 39.1437 18.0128 39.9951 18.8996Z" fill="#404042"></path><path d="M74.1181 7.95205C75.7531 7.95205 77.0689 8.48416 78.075 9.54836C79.0812 10.6126 79.5843 12.0709 79.5843 13.9234V22.8214H76.5077V14.2388C76.5077 13.1548 76.2272 12.3271 75.6564 11.7458C75.0856 11.1644 74.3116 10.8786 73.3248 10.8786C72.2412 10.8786 71.3705 11.2235 70.7029 11.9034C70.0354 12.5932 69.7064 13.6377 69.7064 15.0468V22.8116H66.6299V2.53247H69.7064V10.1889C70.6352 8.69108 72.1057 7.95205 74.1181 7.95205Z" fill="#404042"></path><path d="M86.0753 16.9091C86.3075 18.0127 86.8202 18.8602 87.6426 19.4415C88.4552 20.0328 89.4517 20.3284 90.632 20.3284C92.2671 20.3284 93.4861 19.7273 94.3084 18.535L96.8432 20.0426C95.4404 22.1513 93.3603 23.2057 90.6127 23.2057C88.3004 23.2057 86.4332 22.4864 85.0014 21.0477C83.5792 19.6091 82.8633 17.7861 82.8633 15.5789C82.8633 13.411 83.5695 11.6078 84.9724 10.1396C86.3752 8.68121 88.1747 7.95203 90.3805 7.95203C92.4702 7.95203 94.1827 8.70091 95.5178 10.1888C96.8529 11.6768 97.5204 13.48 97.5204 15.6084C97.5204 15.9336 97.4817 16.377 97.4043 16.9091H86.0753ZM86.0463 14.357H94.4149C94.202 13.1745 93.7279 12.2877 92.9733 11.6866C92.2284 11.0855 91.348 10.7899 90.3418 10.7899C89.2002 10.7899 88.2521 11.1052 87.4975 11.7457C86.7428 12.3862 86.2591 13.2534 86.0463 14.357Z" fill="#404042"></path><path d="M113 22.8214H109.44L105.908 17.8649L102.348 22.8214H98.7588L104.109 15.3719L99.0394 8.32648H102.6L105.87 12.9085L109.14 8.32648H112.729L107.66 15.4015L113 22.8214Z" fill="#404042"></path><path d="M126.091 8.3265H129.167V22.8214H126.091V20.7324C124.93 22.378 123.275 23.1959 121.108 23.1959C119.154 23.1959 117.48 22.4568 116.097 20.9788C114.713 19.5007 114.017 17.6974 114.017 15.569C114.017 13.4209 114.713 11.6177 116.097 10.1494C117.48 8.68123 119.154 7.9422 121.108 7.9422C123.275 7.9422 124.93 8.75021 126.091 10.3761V8.3265ZM118.38 18.8996C119.231 19.7766 120.305 20.22 121.592 20.22C122.879 20.22 123.952 19.7766 124.804 18.8996C125.655 18.0226 126.081 16.9091 126.081 15.5789C126.081 14.2486 125.655 13.1351 124.804 12.2582C123.952 11.3812 122.879 10.9377 121.592 10.9377C120.305 10.9377 119.231 11.3812 118.38 12.2582C117.529 13.1351 117.103 14.2486 117.103 15.5789C117.103 16.9091 117.529 18.0128 118.38 18.8996Z" fill="#404042"></path><path d="M58.8703 4.26672H58.3672L53.1719 9.91294V10.514H55.9292V18.2985C55.9292 20.1904 56.9837 21.4911 58.0092 22.2006C59.0347 22.9101 60.7181 23.117 63.0788 22.8214V20.0131C62.3048 20.0525 60.9697 20.0525 60.4472 20.0229C59.9248 19.9934 59.5281 19.8456 59.2669 19.5894C59.0057 19.3332 58.8703 18.8996 58.8703 18.2985V10.514H63.2142V8.32648H58.8703V4.26672Z" fill="#404042"></path><path d="M27.718 10.3269C27.718 8.48427 26.7505 6.78942 25.1929 5.87301L16.3889 0.689926C14.8216 -0.226476 12.8963 -0.226476 11.3387 0.689926L2.53477 5.86316C0.967468 6.78942 0 8.48427 0 10.3269V20.6832C0 22.5259 0.967468 24.2208 2.52509 25.1372L11.3291 30.3104C12.8963 31.2268 14.8216 31.2268 16.3792 30.3104L25.1832 25.1372C26.7505 24.2208 27.7083 22.5161 27.7083 20.6832V10.3269H27.718ZM24.0126 25.8269H13.8541C8.24283 25.8269 3.69573 21.1956 3.69573 15.4805C3.69573 9.76526 8.24283 5.13398 13.8541 5.13398C19.4655 5.13398 24.0126 9.76526 24.0126 15.4805V25.8269Z" fill="url(#paint0_linear_910_399)"></path></g><defs><linearGradient id="paint0_linear_910_399" x1="0" y1="15.5021" x2="27.7164" y2="15.5021" gradientUnits="userSpaceOnUse"><stop stop-color="#5DC56C"></stop><stop offset="1" stop-color="#18B3D3"></stop></linearGradient><clipPath id="clip0_910_399"><rect width="129.167" height="31" fill="white"></rect></clipPath></defs></svg>