<svg xmlns="http://www.w3.org/2000/svg" width="125" height="40" viewBox="0 0 125 40" fill="none"><g clip-path="url(#clip0_910_411)"><path fill-rule="evenodd" clip-rule="evenodd" d="M22.8061 10.4077C26.2195 13.8059 26.2195 19.3101 22.8061 22.7084C22.6075 22.9098 22.3975 23.0961 22.1837 23.2709V27.859C22.1837 28.471 21.6873 28.9651 21.0726 28.9651C20.4579 28.9651 19.9615 28.471 19.9615 27.859C19.9615 27.247 19.4651 26.7528 18.8504 26.7528C18.2357 26.7528 17.7393 27.247 17.7393 27.859V31.0634C17.7393 31.6754 17.243 32.1695 16.6282 32.1695C16.0135 32.1695 15.5171 31.6754 15.5171 31.0634V27.859C15.5171 27.247 15.0208 26.7528 14.406 26.7528C13.7913 26.7528 13.2949 27.247 13.2949 27.859C13.2949 28.471 12.7986 28.9651 12.1839 28.9651C11.5691 28.9651 11.0728 28.471 11.0728 27.859V23.2709C10.8589 23.0961 10.6489 22.906 10.4504 22.7084C7.03693 19.3101 7.03693 13.8059 10.4504 10.4077C13.8639 7.00941 19.3964 7.00941 22.8061 10.4077ZM14.6428 19.637L16.632 22.1458L18.6213 19.637L22.157 20.4846L16.6282 10.9627L11.1071 20.4846L14.6428 19.637ZM28.4035 4.83512C34.8792 11.282 34.8792 21.8303 28.4035 28.2771L16.632 39.9962L4.85674 28.2771C-1.61891 21.8303 -1.61891 11.282 4.85674 4.83512C11.3324 -1.61171 21.9279 -1.61171 28.4035 4.83512Z" fill="#3EDC81"></path><path d="M120.724 10.2252C122.045 10.2252 123.091 10.6282 123.855 11.4302C124.618 12.2323 125 13.3156 125 14.6764V21.3437H123.561V14.6764C123.561 13.7071 123.301 12.9545 122.786 12.4185C122.27 11.8825 121.537 11.6165 120.594 11.6165C119.548 11.6165 118.696 11.9472 118.043 12.6048C117.39 13.2624 117.062 14.2811 117.062 15.6533V21.3399H115.623V10.4875H117.062V12.1828C117.875 10.879 119.097 10.2252 120.724 10.2252ZM111.129 21.3437V10.4875H112.568V21.3437H111.129ZM112.591 7.88369C112.389 8.08515 112.14 8.18779 111.85 8.18779C111.56 8.18779 111.312 8.08515 111.109 7.88369C110.907 7.68223 110.804 7.43515 110.804 7.14626C110.804 6.85737 110.907 6.61029 111.109 6.40883C111.312 6.20736 111.56 6.10473 111.85 6.10473C112.14 6.10473 112.389 6.20736 112.591 6.40883C112.793 6.61029 112.896 6.85737 112.896 7.14626C112.896 7.43515 112.793 7.67843 112.591 7.88369ZM103.931 14.2659C104.878 14.2659 105.657 13.9504 106.276 13.3194C106.894 12.6884 107.203 11.8902 107.203 10.9208C107.203 9.95154 106.894 9.15329 106.276 8.52229C105.657 7.89509 104.878 7.57959 103.931 7.57959H100.006V14.2659H103.931ZM103.931 6.14654C105.298 6.14654 106.44 6.60269 107.356 7.51497C108.273 8.42726 108.731 9.56382 108.731 10.9246C108.731 12.2855 108.273 13.422 107.356 14.3343C106.44 15.2466 105.298 15.7028 103.931 15.7028H100.006V21.3475H98.4789V6.14654H103.931ZM87.6849 14.8931H93.2442C93.0838 14.1557 92.7516 13.6045 92.2514 13.2434C91.7512 12.8823 91.1785 12.6998 90.5409 12.6998C89.7849 12.6998 89.1587 12.8899 88.6661 13.2738C88.1736 13.6615 87.8452 14.2013 87.6849 14.8931ZM87.7307 17.0674C88.1087 18.4282 89.1358 19.1086 90.8043 19.1086C91.8811 19.1086 92.6943 18.7475 93.248 18.0253L95.516 19.3291C94.4393 20.8762 92.8547 21.6516 90.7623 21.6516C88.9601 21.6516 87.513 21.1081 86.421 20.0247C85.329 18.9376 84.7869 17.5729 84.7869 15.9232C84.7869 14.2887 85.3252 12.9241 86.402 11.8293C87.4787 10.7384 88.857 10.191 90.5447 10.191C92.1445 10.191 93.4618 10.7422 94.5042 11.8407C95.5427 12.9393 96.062 14.3001 96.062 15.9232C96.062 16.2843 96.0276 16.6683 95.9513 17.075H87.7307V17.0674ZM78.8305 10.1834C80.0218 10.1834 81.0068 10.5825 81.7858 11.377C82.5647 12.1714 82.9541 13.2738 82.9541 14.6764V21.3437H80.1401V15.0261C80.1401 14.3039 79.9454 13.7489 79.5521 13.365C79.1588 12.9811 78.6357 12.791 77.9828 12.791C77.2574 12.791 76.6732 13.0153 76.2379 13.4638C75.8027 13.9124 75.585 14.5852 75.585 15.4823V21.3437H72.771V10.4875H75.585V11.7039C76.2647 10.689 77.349 10.1834 78.8305 10.1834ZM62.2137 18.1203C62.7788 18.6905 63.5004 18.9794 64.371 18.9794C65.2453 18.9794 65.967 18.6943 66.5397 18.1203C67.1124 17.5501 67.4026 16.8127 67.4026 15.9156C67.4026 15.0185 67.1163 14.2849 66.5397 13.7109C65.967 13.1407 65.2415 12.8519 64.371 12.8519C63.5004 12.8519 62.7788 13.1369 62.2137 13.7109C61.6448 14.2811 61.3622 15.0185 61.3622 15.9156C61.3622 16.8127 61.6486 17.5463 62.2137 18.1203ZM67.4026 10.4875H70.2166V21.3437H67.4026V20.0627C66.5588 21.1195 65.3752 21.6478 63.8479 21.6478C62.3932 21.6478 61.1484 21.0928 60.1061 19.9867C59.0675 18.8806 58.5482 17.5235 58.5482 15.9156C58.5482 14.3077 59.0675 12.9507 60.1061 11.8445C61.1446 10.7384 62.3932 10.1834 63.8479 10.1834C65.3752 10.1834 66.5588 10.7118 67.4026 11.7685V10.4875ZM53.7297 21.3437V5.49274H56.5437V21.3399H53.7297V21.3437ZM46.6851 13.5475C47.3266 13.5475 47.8535 13.327 48.2773 12.8861C48.7011 12.4451 48.9111 11.8978 48.9111 11.2477C48.9111 10.5825 48.7011 10.0314 48.2773 9.59803C47.8573 9.16469 47.3266 8.94802 46.6851 8.94802H44.0009V13.5513H46.6851V13.5475ZM46.6851 6.14654C48.1551 6.14654 49.3884 6.6369 50.3926 7.62141C51.3968 8.60592 51.8969 9.8147 51.8969 11.2477C51.8969 12.6808 51.3968 13.8896 50.3926 14.8741C49.3884 15.8586 48.1551 16.349 46.6851 16.349H44.0009V21.3437H40.9922V6.14654H46.6851Z" fill="#012133"></path><path d="M98.1925 28.8359H101.033C100.953 28.4596 100.781 28.1783 100.525 27.992C100.27 27.8058 99.9794 27.7145 99.6511 27.7145C99.2654 27.7145 98.9447 27.8134 98.6927 28.0072C98.4407 28.2087 98.2765 28.4824 98.1925 28.8359ZM98.2154 29.9458C98.4102 30.6415 98.9333 30.9874 99.7847 30.9874C100.335 30.9874 100.751 30.8011 101.033 30.4324L102.19 31.0976C101.64 31.8882 100.831 32.2836 99.7618 32.2836C98.8416 32.2836 98.1009 32.0061 97.5473 31.4511C96.9898 30.8961 96.7111 30.1967 96.7111 29.3566C96.7111 28.5204 96.986 27.8248 97.5358 27.266C98.0856 26.7072 98.792 26.4297 99.6511 26.4297C100.468 26.4297 101.14 26.711 101.671 27.2736C102.202 27.8362 102.469 28.5318 102.469 29.3605C102.469 29.5467 102.45 29.7406 102.412 29.9496H98.2154V29.9458ZM94.6836 27.5397C94.8173 27.1862 95.0387 26.9201 95.348 26.7414C95.6573 26.5628 96.0009 26.4753 96.3789 26.4753V28.0718C95.9398 28.0186 95.5503 28.1099 95.2029 28.3379C94.8592 28.566 94.6836 28.9499 94.6836 29.4821V32.1315H93.248V26.5856H94.6836V27.5397ZM87.9674 28.8359H90.8082C90.728 28.4596 90.5561 28.1783 90.3003 27.992C90.0445 27.8058 89.7505 27.7145 89.426 27.7145C89.0403 27.7145 88.7196 27.8134 88.4676 28.0072C88.2156 28.2087 88.0514 28.4824 87.9674 28.8359ZM87.9903 29.9458C88.1851 30.6415 88.7081 30.9874 89.5596 30.9874C90.1094 30.9874 90.5256 30.8011 90.8082 30.4324L91.9651 31.0976C91.4152 31.8882 90.6058 32.2836 89.5367 32.2836C88.6165 32.2836 87.8758 32.0061 87.3221 31.4511C86.7647 30.8961 86.486 30.1967 86.486 29.3566C86.486 28.5204 86.7609 27.8248 87.3107 27.266C87.8605 26.7072 88.5669 26.4297 89.426 26.4297C90.2431 26.4297 90.9151 26.711 91.4458 27.2736C91.9765 27.8362 92.2438 28.5318 92.2438 29.3605C92.2438 29.5467 92.2247 29.7406 92.1903 29.9496H87.9903V29.9458ZM83.4467 26.4297C84.0538 26.4297 84.5578 26.635 84.9549 27.0417C85.352 27.4484 85.5505 28.011 85.5505 28.7257V32.1315H84.1149V28.9043C84.1149 28.5356 84.0156 28.2505 83.8132 28.0566C83.6147 27.8628 83.3436 27.7639 83.0114 27.7639C82.641 27.7639 82.3432 27.878 82.1218 28.1061C81.9003 28.3341 81.7858 28.68 81.7858 29.1362V32.1315H80.3501V24.3695H81.7858V27.209C82.1332 26.6882 82.6869 26.4297 83.4467 26.4297ZM74.2334 26.4297C74.8443 26.4297 75.3445 26.635 75.7416 27.0417C76.1386 27.4484 76.3372 28.011 76.3372 28.7257V32.1315H74.9016V28.9043C74.9016 28.5356 74.8023 28.2505 74.5999 28.0566C74.4014 27.8628 74.1303 27.7639 73.7981 27.7639C73.4277 27.7639 73.1299 27.878 72.9085 28.1061C72.687 28.3341 72.5725 28.68 72.5725 29.1362V32.1315H71.1368V26.5856H72.5725V27.209C72.9237 26.6882 73.4774 26.4297 74.2334 26.4297ZM65.7455 30.4856C66.0357 30.7783 66.4023 30.9227 66.849 30.9227C67.2957 30.9227 67.6623 30.7783 67.9563 30.4856C68.2503 30.1929 68.3954 29.8166 68.3954 29.3605C68.3954 28.9005 68.2503 28.528 67.9563 28.2353C67.6623 27.9426 67.2957 27.7982 66.849 27.7982C66.4023 27.7982 66.0357 27.9426 65.7455 28.2353C65.4554 28.528 65.3103 28.9043 65.3103 29.3605C65.3103 29.8166 65.4554 30.1929 65.7455 30.4856ZM68.3954 26.5856H69.831V32.1315H68.3954V31.4777C67.9639 32.0175 67.3606 32.2874 66.5779 32.2874C65.8333 32.2874 65.1995 32.0061 64.6688 31.4397C64.1381 30.8733 63.8708 30.1815 63.8708 29.3605C63.8708 28.5394 64.1381 27.8476 64.6688 27.2812C65.1995 26.7148 65.8372 26.4335 66.5779 26.4335C67.3568 26.4335 67.9639 26.7034 68.3954 27.2432V26.5856ZM58.7773 30.364C59.0713 30.6491 59.4455 30.7897 59.8961 30.7897C60.3504 30.7897 60.7208 30.6491 61.0148 30.364C61.3088 30.0789 61.4539 29.714 61.4539 29.273C61.4539 28.8359 61.305 28.4748 61.0148 28.1897C60.7208 27.9046 60.3466 27.7639 59.8961 27.7639C59.4417 27.7639 59.0713 27.9046 58.7773 28.1897C58.4833 28.4748 58.3382 28.8359 58.3382 29.273C58.3382 29.714 58.4833 30.0789 58.7773 30.364ZM61.4577 26.5856H62.8628V31.8654C62.8628 32.7245 62.5764 33.3783 62.0113 33.8307C61.4424 34.283 60.759 34.5073 59.9572 34.5073C59.3539 34.5073 58.827 34.3932 58.3688 34.1614C57.9106 33.9333 57.5631 33.595 57.315 33.154L58.5406 32.4546C58.8231 32.9716 59.3081 33.2301 59.9992 33.2301C60.4535 33.2301 60.8086 33.1122 61.0682 32.8766C61.3279 32.6409 61.4577 32.3026 61.4577 31.8654V31.2687C61.0339 31.8312 60.4382 32.1125 59.6746 32.1125C58.8881 32.1125 58.2275 31.8388 57.6968 31.2877C57.1661 30.7365 56.8988 30.0675 56.8988 29.2768C56.8988 28.4938 57.166 27.8248 57.7006 27.2698C58.2351 26.7148 58.8919 26.4373 59.6708 26.4373C60.4344 26.4373 61.0301 26.7186 61.4539 27.2812V26.5856H61.4577ZM52.1489 30.4552C52.4353 30.7441 52.7942 30.8885 53.2219 30.8885C53.6533 30.8885 54.0122 30.7441 54.3024 30.4552C54.5926 30.1663 54.7377 29.8014 54.7377 29.3566C54.7377 28.9119 54.5926 28.547 54.3024 28.2581C54.0122 27.9692 53.6533 27.8248 53.2219 27.8248C52.7904 27.8248 52.4315 27.9692 52.1489 28.2581C51.8626 28.547 51.7213 28.9119 51.7213 29.3566C51.7213 29.8014 51.8626 30.1701 52.1489 30.4552ZM55.318 31.4397C54.7453 32.0061 54.0466 32.2874 53.2257 32.2874C52.4009 32.2874 51.706 32.0061 51.1371 31.4397C50.5682 30.8733 50.2857 30.1815 50.2857 29.3605C50.2857 28.5394 50.5682 27.8476 51.1371 27.2812C51.706 26.7148 52.4009 26.4335 53.2257 26.4335C54.0504 26.4335 54.7491 26.7148 55.318 27.2812C55.8908 27.8476 56.1771 28.5394 56.1771 29.3605C56.1771 30.1815 55.8908 30.8733 55.318 31.4397ZM47.8229 32.1315V24.035H49.2586V32.1315H47.8229ZM44.0582 32.2874C43.2869 32.2874 42.6378 32.1163 42.1071 31.7704C41.5802 31.4283 41.2098 30.957 40.9922 30.3678L42.3056 29.6037C42.6111 30.3944 43.2067 30.7897 44.1002 30.7897C44.5317 30.7897 44.8447 30.7137 45.0471 30.5578C45.2457 30.402 45.3487 30.2081 45.3487 29.9686C45.3487 29.695 45.2266 29.4821 44.9822 29.33C44.7378 29.178 44.2987 29.0145 43.6687 28.8359C43.3175 28.7333 43.0235 28.6306 42.7829 28.5242C42.5424 28.4216 42.3018 28.2809 42.0575 28.1099C41.8169 27.935 41.6336 27.7183 41.5076 27.4484C41.3816 27.1824 41.3167 26.8707 41.3167 26.5172C41.3167 25.8139 41.5687 25.2552 42.0689 24.837C42.5691 24.4189 43.1724 24.2098 43.8787 24.2098C44.5087 24.2098 45.0662 24.3619 45.5435 24.6698C46.0208 24.9777 46.3949 25.4034 46.6622 25.9508L45.3717 26.692C45.0586 26.0268 44.5622 25.6923 43.8787 25.6923C43.558 25.6923 43.3098 25.7645 43.1266 25.909C42.9433 26.0534 42.8555 26.2397 42.8555 26.4677C42.8555 26.711 42.9586 26.9087 43.1609 27.0607C43.3633 27.2128 43.7566 27.3762 44.3369 27.5549C44.5737 27.6271 44.7531 27.6841 44.8791 27.7259C45.0013 27.7678 45.1693 27.8286 45.3793 27.916C45.5893 27.9996 45.7535 28.0794 45.868 28.1555C45.9826 28.2277 46.1162 28.3303 46.2651 28.4558C46.414 28.5812 46.5247 28.7104 46.6049 28.8435C46.6813 28.9765 46.75 29.1362 46.8073 29.3262C46.8646 29.5163 46.8913 29.7216 46.8913 29.942C46.8913 30.6605 46.6317 31.2268 46.1047 31.6488C45.5778 32.0745 44.8982 32.2874 44.0582 32.2874Z" fill="#012133"></path></g><defs><clipPath id="clip0_910_411"><rect width="125" height="40" fill="white"></rect></clipPath></defs></svg>