<svg xmlns="http://www.w3.org/2000/svg" width="123" height="50" viewBox="0 0 123 50" fill="none"><g clip-path="url(#clip0_498_337)"><path d="M22.6496 36.0635H39.0136L29.8551 45.2245C28.0563 47.0238 25.8669 47.9286 23.328 47.9286H6.97437L16.1328 38.7676C17.9214 36.9683 20.1108 36.0635 22.6496 36.0635Z" fill="url(#paint0_linear_498_337)"></path><path d="M37.7596 37.3179L29.8654 45.2142C28.0666 47.0135 25.8772 47.9183 23.3383 47.9183H6.97437C6.97437 47.9183 19.8641 47.5276 27.7377 39.6107L37.7596 37.3179Z" fill="#0131B9"></path><path d="M22.7729 23.3657L14.334 5.20825L49.4877 18.0398L31.3352 26.4913C28.1179 27.9822 24.2736 26.5839 22.7729 23.3657Z" fill="url(#paint1_linear_498_337)"></path><path d="M33.8948 18.0398C36.3617 18.0398 38.7361 17.0527 40.4836 15.2946L43.5261 12.2615C45.6538 10.1435 48.5319 8.96106 51.5436 8.96106C54.36 8.96106 57.0839 10.0098 59.1808 11.9016L65.3173 18.0295H60.8871C58.4202 18.0295 56.0458 19.0165 54.2983 20.7747L38.3661 36.7113C36.372 38.8293 33.607 40.022 30.6775 40.022C24.8391 40.022 20.1108 35.2924 20.1108 29.4524C20.1108 23.6125 24.8391 18.8829 30.6775 18.8829C31.6334 18.8829 32.5688 19.0165 33.4528 19.253L33.8948 18.0398Z" fill="url(#paint2_linear_498_337)"></path><path d="M60.8664 18.0399C58.3994 18.0399 56.025 19.027 54.2776 20.7851L38.3454 36.7217C36.3513 38.8398 33.5862 40.0324 30.6568 40.0324C24.8184 40.0324 20.0901 35.3029 20.0901 29.4629C20.0901 26.5223 21.2927 23.8696 23.2251 21.947C23.1532 22.3479 23.1224 22.7489 23.1224 23.1602C23.1224 29.0002 27.8506 33.7298 33.689 33.7298C36.6185 33.7298 39.3732 32.5268 41.3776 30.4191L51.0089 20.7851C52.746 19.027 55.1205 18.0399 57.5977 18.0399H60.8664Z" fill="#0131B9"></path><path d="M21.7348 35.4466L4.17847 17.8958H50.5773L33.021 35.4466C29.9167 38.5517 24.839 38.5517 21.7348 35.4466Z" fill="url(#paint3_linear_498_337)"></path><path d="M21.7348 35.4466L4.17847 17.8958L21.7348 31.1078C25.2399 33.7502 29.9167 34.2128 33.021 31.1078L46.2293 17.8958H50.5773L33.021 35.4466C29.9167 38.5517 24.839 38.5517 21.7348 35.4466Z" fill="#1F32B4"></path><path d="M30.6776 40.0323C27.337 40.0323 24.3664 38.4797 22.4237 36.0635C21.4883 36.0841 20.6146 36.228 19.7717 36.4954C21.6014 39.6518 25.014 41.7802 28.9302 41.7802C31.6541 41.7802 34.2341 40.7417 36.1871 38.9013L36.6188 38.4694L37.9345 37.1534C35.9712 38.9938 33.3912 40.0323 30.6776 40.0323Z" fill="#020C6A"></path><path d="M25.9801 38.9321C28.5806 39.3537 31.3354 38.5106 33.2575 36.4542L33.6275 36.0635L50.5877 17.8958L33.0211 35.4466C32.8052 35.6626 32.5688 35.8682 32.3427 36.0533C29.4543 38.3461 25.3119 38.3461 22.4236 36.0533C23.3795 37.2562 24.5924 38.2433 25.9801 38.9321Z" fill="#020C6A"></path><path d="M39.4658 14.3795C35.9401 15.7059 28.8683 17.0116 19.165 15.5928L20.234 17.8856H35.5496C37.41 17.5463 39.1266 16.6518 40.4834 15.2946L40.8843 14.8936L39.4658 14.3795Z" fill="#020C6A"></path><path d="M50.5772 17.8959L19.6995 16.7443L20.234 17.8959H50.5772Z" fill="#020C6A"></path><path d="M14.334 5.20825L29.4234 17.8958H20.2341L14.334 5.20825Z" fill="#2A929C"></path><path d="M57.3144 32.5589C57.8679 32.6793 58.3011 32.9441 58.6381 33.3774C58.975 33.8107 59.1314 34.2922 59.1314 34.8459C59.1314 35.6403 58.8547 36.2662 58.3011 36.7356C57.7476 37.2051 56.9775 37.4338 55.9787 37.4338H51.5625V27.9489H55.8343C56.797 27.9489 57.5551 28.1656 58.0966 28.6109C58.6381 29.0563 58.9148 29.6461 58.9148 30.4044C58.9148 30.9581 58.7704 31.4275 58.4816 31.8006C58.1928 32.1617 57.7957 32.4145 57.3144 32.5589ZM53.8849 31.7766H55.4011C55.7742 31.7766 56.063 31.6923 56.2675 31.5238C56.4721 31.3553 56.5684 31.1146 56.5684 30.7896C56.5684 30.4646 56.4721 30.2118 56.2675 30.0433C56.063 29.8748 55.7742 29.7905 55.4011 29.7905H53.8849V31.7766ZM55.5816 35.5681C55.9667 35.5681 56.2675 35.4838 56.4841 35.3033C56.7007 35.1227 56.797 34.87 56.797 34.545C56.797 34.22 56.6887 33.9552 56.4601 33.7626C56.2435 33.57 55.9306 33.4737 55.5455 33.4737H53.8729V35.5681H55.5816ZM61.6344 29.1044C61.2252 29.1044 60.9003 28.9841 60.6356 28.7433C60.3829 28.5026 60.2505 28.2137 60.2505 27.8647C60.2505 27.5036 60.3829 27.2027 60.6356 26.9619C60.8883 26.7212 61.2252 26.6008 61.6344 26.6008C62.0315 26.6008 62.3564 26.7212 62.6091 26.9619C62.8618 27.2027 62.9941 27.5036 62.9941 27.8647C62.9941 28.2137 62.8618 28.5146 62.6091 28.7433C62.3564 28.9841 62.0315 29.1044 61.6344 29.1044ZM62.7896 29.8868V37.4217H60.4792V29.8868H62.7896ZM66.7726 31.1386C67.0373 30.7294 67.3863 30.4044 67.7834 30.1637C68.1925 29.9229 68.6378 29.8026 69.1311 29.8026V32.258H68.4934C67.9158 32.258 67.4826 32.3784 67.1938 32.6312C66.905 32.8839 66.7606 33.3172 66.7606 33.9311V37.4338H64.4502V29.8989H66.7606V31.1386H66.7726ZM69.7809 33.6422C69.7809 32.8719 69.9253 32.1858 70.2261 31.6081C70.5149 31.0183 70.9241 30.5729 71.4174 30.26C71.9228 29.947 72.4884 29.7905 73.1021 29.7905C73.5955 29.7905 74.0527 29.8989 74.4619 30.1035C74.871 30.3081 75.1959 30.597 75.4245 30.946V27.4434H77.7349V37.4458H75.4245V36.3625C75.2079 36.7236 74.8951 37.0125 74.498 37.2291C74.1009 37.4458 73.6316 37.5541 73.1021 37.5541C72.4764 37.5541 71.9228 37.3977 71.4174 37.0727C70.912 36.7597 70.5149 36.3023 70.2261 35.7125C69.9253 35.0987 69.7809 34.4126 69.7809 33.6422ZM75.4245 33.6543C75.4245 33.0765 75.2681 32.6191 74.9432 32.2941C74.6303 31.9571 74.2332 31.7886 73.776 31.7886C73.3187 31.7886 72.9216 31.9571 72.6087 32.2821C72.2838 32.6071 72.1274 33.0645 72.1274 33.6422C72.1274 34.22 72.2838 34.6774 72.6087 35.0144C72.9336 35.3514 73.3187 35.5199 73.776 35.5199C74.2332 35.5199 74.6303 35.3514 74.9432 35.0264C75.2681 34.6894 75.4245 34.232 75.4245 33.6543ZM85.4122 28.0091V29.0081H82.8491V37.4217H81.6217V29.0081H79.0466V28.0091H85.4122ZM88.1558 31.2229C88.3724 30.8016 88.6852 30.4766 89.0823 30.2359C89.4794 30.0072 89.9728 29.8868 90.5504 29.8868V31.1627H90.2255C88.8537 31.1627 88.1558 31.909 88.1558 33.4015V37.4338H86.9284V30.0313H88.1558V31.2229ZM91.501 33.7024C91.501 32.9441 91.6575 32.2821 91.9583 31.7043C92.2712 31.1266 92.6923 30.6933 93.2218 30.3683C93.7633 30.0553 94.3529 29.8989 95.0147 29.8989C95.6645 29.8989 96.2301 30.0433 96.6994 30.3201C97.1807 30.597 97.5297 30.946 97.7704 31.3794V30.0313H99.0098V37.4338H97.7704V36.0616C97.5297 36.4949 97.1687 36.856 96.6874 37.1328C96.206 37.4217 95.6405 37.5541 95.0027 37.5541C94.3409 37.5541 93.7512 37.3856 93.2218 37.0727C92.6923 36.7477 92.2711 36.2903 91.9703 35.7125C91.6574 35.1107 91.501 34.4487 91.501 33.7024ZM97.7704 33.7145C97.7704 33.1608 97.6621 32.6673 97.4334 32.258C97.2048 31.8367 96.904 31.5238 96.5189 31.3071C96.1338 31.0905 95.7127 30.9701 95.2554 30.9701C94.7981 30.9701 94.377 31.0784 94.0039 31.2951C93.6309 31.5118 93.318 31.8247 93.1014 32.246C92.8728 32.6552 92.7645 33.1487 92.7645 33.7024C92.7645 34.2681 92.8728 34.7616 93.1014 35.1829C93.3301 35.6042 93.6309 35.9172 94.0039 36.1458C94.377 36.3625 94.7981 36.4829 95.2554 36.4829C95.7127 36.4829 96.1338 36.3745 96.5189 36.1458C96.904 35.9292 97.2048 35.6042 97.4334 35.1829C97.6621 34.7616 97.7704 34.2681 97.7704 33.7145ZM100.634 33.7024C100.634 32.9441 100.791 32.2821 101.092 31.7043C101.392 31.1266 101.814 30.6933 102.355 30.3683C102.897 30.0553 103.486 29.8989 104.16 29.8989C104.738 29.8989 105.267 30.0313 105.773 30.2961C106.266 30.5609 106.651 30.9099 106.904 31.3432V27.4193H108.143V37.4217H106.904V36.0255C106.663 36.4708 106.302 36.8319 105.821 37.1088C105.339 37.3977 104.786 37.5301 104.148 37.5301C103.486 37.5301 102.897 37.3615 102.355 37.0486C101.814 36.7236 101.392 36.2662 101.092 35.6885C100.791 35.1107 100.634 34.4487 100.634 33.7024ZM106.904 33.7145C106.904 33.1608 106.795 32.6673 106.567 32.258C106.338 31.8367 106.037 31.5238 105.652 31.3071C105.267 31.0905 104.846 30.9701 104.389 30.9701C103.931 30.9701 103.51 31.0784 103.137 31.2951C102.764 31.5118 102.451 31.8247 102.235 32.246C102.006 32.6552 101.898 33.1487 101.898 33.7024C101.898 34.2681 102.006 34.7616 102.235 35.1829C102.463 35.6042 102.764 35.9172 103.137 36.1458C103.51 36.3625 103.931 36.4829 104.389 36.4829C104.846 36.4829 105.267 36.3745 105.652 36.1458C106.037 35.9292 106.338 35.6042 106.567 35.1829C106.795 34.7616 106.904 34.2681 106.904 33.7145ZM116.976 33.4376C116.976 33.6663 116.963 33.9191 116.939 34.1839H111.019C111.067 34.9181 111.32 35.4838 111.765 35.8931C112.222 36.3023 112.776 36.5069 113.426 36.5069C113.955 36.5069 114.4 36.3866 114.761 36.1338C115.122 35.881 115.363 35.5561 115.507 35.1348H116.831C116.639 35.8449 116.241 36.4227 115.64 36.868C115.05 37.3134 114.304 37.5421 113.426 37.5421C112.728 37.5421 112.09 37.3856 111.536 37.0727C110.983 36.7597 110.55 36.3144 110.237 35.7246C109.924 35.1468 109.768 34.4728 109.768 33.7024C109.768 32.9321 109.924 32.2701 110.225 31.6923C110.526 31.1146 110.959 30.6692 111.512 30.3562C112.066 30.0433 112.704 29.8868 113.426 29.8868C114.124 29.8868 114.749 30.0433 115.291 30.3442C115.832 30.6451 116.254 31.0664 116.542 31.6081C116.831 32.1617 116.976 32.7636 116.976 33.4376ZM115.712 33.1848C115.712 32.7154 115.604 32.3182 115.399 31.9692C115.195 31.6321 114.906 31.3794 114.557 31.1988C114.196 31.0183 113.811 30.934 113.378 30.934C112.752 30.934 112.222 31.1266 111.789 31.5238C111.356 31.921 111.103 32.4627 111.043 33.1728L115.712 33.1848ZM119.827 31.2229C120.044 30.8016 120.357 30.4766 120.754 30.2359C121.151 30.0072 121.644 29.8868 122.222 29.8868V31.1627H121.897C120.525 31.1627 119.827 31.909 119.827 33.4015V37.4338H118.6V30.0313H119.827V31.2229Z" fill="#1A1A1A"></path><path d="M51.5745 42.7901C51.5745 42.3327 51.6828 41.9234 51.8873 41.5623C52.0919 41.2012 52.3687 40.9123 52.7297 40.7077C53.0907 40.5031 53.4757 40.3948 53.9089 40.3948C54.4143 40.3948 54.8596 40.5151 55.2446 40.7679C55.6297 41.0086 55.9065 41.3577 56.0749 41.8151H55.3409C55.2085 41.5383 55.028 41.3216 54.7874 41.1651C54.5467 41.0086 54.2579 40.9364 53.9089 40.9364C53.584 40.9364 53.2952 41.0086 53.0305 41.1651C52.7778 41.3216 52.5732 41.5383 52.4168 41.8151C52.2724 42.0919 52.2002 42.4169 52.2002 42.8021C52.2002 43.1752 52.2724 43.5002 52.4168 43.7771C52.5612 44.0539 52.7658 44.2706 53.0305 44.427C53.2832 44.5835 53.584 44.6557 53.9089 44.6557C54.2459 44.6557 54.5347 44.5835 54.7874 44.427C55.028 44.2826 55.2206 44.0659 55.3409 43.7771H56.0749C55.8944 44.2224 55.6177 44.5715 55.2446 44.8122C54.8596 45.0529 54.4264 45.1733 53.9089 45.1733C53.4757 45.1733 53.0786 45.077 52.7297 44.8724C52.3687 44.6678 52.0919 44.3909 51.8873 44.0298C51.6707 43.6567 51.5745 43.2474 51.5745 42.7901ZM59.4322 45.1252L58.3251 43.2113H57.5911V45.1252H56.9774V40.455H58.4816C58.8305 40.455 59.1314 40.5151 59.372 40.6355C59.6127 40.7559 59.7932 40.9123 59.9135 41.129C60.0339 41.3336 60.094 41.5623 60.094 41.8271C60.094 42.1521 59.9978 42.429 59.8173 42.6817C59.6368 42.9225 59.36 43.091 58.987 43.1752L60.1542 45.1372H59.4322V45.1252ZM57.5791 42.7299H58.4816C58.8065 42.7299 59.0592 42.6456 59.2276 42.4891C59.3961 42.3206 59.4803 42.104 59.4803 41.8392C59.4803 41.5623 59.3961 41.3457 59.2397 41.2012C59.0712 41.0447 58.8305 40.9725 58.4936 40.9725H57.5911V42.7299H57.5791ZM61.6463 40.9605V42.5252H63.343V43.0308H61.6463V44.6437H63.5476V45.1492H61.0326V40.479H63.5476V40.9846L61.6463 40.9605ZM67.2298 44.09H65.1962L64.8231 45.1252H64.1854L65.87 40.479H66.568L68.2526 45.1252H67.6149L67.2298 44.09ZM67.0613 43.5965L66.219 41.2373L65.3767 43.5965H67.0613ZM71.8626 40.467V40.9605H70.5871V45.1372H69.9734V40.9605H68.6979V40.467H71.8626ZM73.2224 40.467V45.1372H72.6087V40.467H73.2224ZM78.1199 40.467L76.3631 45.1372H75.6651L73.8842 40.467H74.534L76.0021 44.4872L77.4701 40.467H78.1199ZM79.3955 40.9605V42.5252H81.0921V43.0308H79.3955V44.6437H81.2967V45.1492H78.7818V40.479H81.2967V40.9846L79.3955 40.9605ZM84.6179 40.467V45.1372H84.0042V40.467H84.6179ZM87.1088 40.467C87.6142 40.467 88.0594 40.5633 88.4325 40.7559C88.8055 40.9485 89.0943 41.2133 89.2868 41.5744C89.4914 41.9234 89.5877 42.3447 89.5877 42.8141C89.5877 43.2956 89.4914 43.7048 89.2868 44.0539C89.0823 44.403 88.8055 44.6678 88.4325 44.8604C88.0594 45.0409 87.6142 45.1372 87.1088 45.1372H85.6528V40.467H87.1088ZM87.1088 44.6317C87.7105 44.6317 88.1677 44.4752 88.4926 44.1502C88.8055 43.8252 88.974 43.3798 88.974 42.8021C88.974 42.2243 88.8175 41.7669 88.4926 41.442C88.1677 41.117 87.7105 40.9485 87.1208 40.9485H86.2785V44.6196L87.1088 44.6317ZM90.9956 40.9605V42.5252H92.6922V43.0308H90.9956V44.6437H92.8968V45.1492H90.3819V40.479H92.8968V40.9846L90.9956 40.9605ZM96.579 44.09H94.5454L94.1723 45.1252H93.5346L95.2192 40.479H95.9172L97.6018 45.1252H96.9641L96.579 44.09ZM96.4105 43.5965L95.5682 41.2373L94.7259 43.5965H96.4105Z" fill="#1A1A1A"></path></g><defs><linearGradient id="paint0_linear_498_337" x1="38.0681" y1="35.0572" x2="5.83469" y2="49.8746" gradientUnits="userSpaceOnUse"><stop stop-color="#114FEE"></stop><stop offset="1" stop-color="#5EFCA1"></stop></linearGradient><linearGradient id="paint1_linear_498_337" x1="33.5697" y1="17.8268" x2="29.7769" y2="3.67974" gradientUnits="userSpaceOnUse"><stop stop-color="#0463EF"></stop><stop offset="0.302" stop-color="#1ABC9C"></stop><stop offset="1" stop-color="#ECF955"></stop></linearGradient><linearGradient id="paint2_linear_498_337" x1="30.0592" y1="37.6412" x2="55.3556" y2="6.13361" gradientUnits="userSpaceOnUse"><stop stop-color="#0463EF"></stop><stop offset="1" stop-color="#F98AFE"></stop></linearGradient><linearGradient id="paint3_linear_498_337" x1="41.8101" y1="29.1121" x2="15.0515" y2="19.4654" gradientUnits="userSpaceOnUse"><stop stop-color="#0463EF"></stop><stop offset="1" stop-color="#51F5EA"></stop></linearGradient><clipPath id="clip0_498_337"><rect width="122.222" height="50" fill="white"></rect></clipPath></defs></svg>