<svg xmlns="http://www.w3.org/2000/svg" width="107" height="40" viewBox="0 0 107 40" fill="none"><g clip-path="url(#clip0_910_424)"><path d="M16.416 35.4917L30.8923 7.40152L17.0692 0.624207L16.416 35.4917Z" fill="#FFCF1B"></path><path d="M0 17.7062L17.2741 0L37.7262 6.25217L0 17.7062Z" fill="#FFAD2B"></path><path d="M36.7704 17.3297H32.9881V21.1841H30.6582V24.3745H32.9881V33.6488H36.7704V24.3745H39.0905V21.1841H36.7704V17.3297Z" fill="#161500"></path><path d="M44.5402 23.0568L44.3453 21.2138H40.7871V33.6488H44.5597V28.2388C44.5597 25.7717 45.8563 24.8006 48.0204 24.8006H49.2194V21.1841C48.7028 21.0553 48.2154 21.0057 47.7767 21.0057C46.1292 21.0156 45.0569 21.838 44.5402 23.0568Z" fill="#161500"></path><path d="M52.9913 14.8824C51.7923 14.8824 50.8369 15.8336 50.8369 17.0523C50.8369 18.271 51.7923 19.2421 52.9913 19.2421C54.1709 19.2421 55.1262 18.271 55.1262 17.0523C55.1262 15.8336 54.1709 14.8824 52.9913 14.8824Z" fill="#161500"></path><path d="M54.9025 21.1841H51.1299V33.6389H54.9025V21.1841Z" fill="#161500"></path><path d="M65.304 20.7877C63.715 20.7877 62.3113 21.4119 61.5509 22.482L61.3072 21.1841H57.749V33.6388H61.5216V26.812C61.5216 25.2663 62.477 24.2655 63.9685 24.2655C65.265 24.2655 66.1229 25.2861 66.1229 26.8615V33.6388H69.8955V25.9401C69.915 22.6802 68.2188 20.7877 65.304 20.7877Z" fill="#161500"></path><path d="M81.5348 22.4325C80.8719 21.4119 79.5461 20.758 77.8792 20.758C74.4185 20.758 71.9911 23.4035 71.9911 27.1885C71.9911 30.924 74.3697 33.4902 77.8012 33.4902C79.3902 33.4902 80.7647 32.9155 81.5056 32.0238V33.6388C81.5056 35.4124 80.3552 36.5024 78.5421 36.5024C76.8751 36.5024 75.8417 35.68 75.7735 34.2829H71.9521C72.2933 37.8202 74.8182 39.9901 78.5713 39.9901C82.7631 39.9901 85.2879 37.295 85.2879 32.8363V21.1841H81.7298L81.5348 22.4325ZM78.6395 30.161C76.9726 30.161 75.793 28.8927 75.793 27.0993C75.793 25.3257 76.9433 24.107 78.6103 24.107C80.3552 24.107 81.5056 25.2762 81.5056 27.0993C81.5056 28.9423 80.3552 30.161 78.6395 30.161Z" fill="#161500"></path><path d="M91.8976 14.8625H88.125V33.6488H91.8976V14.8625Z" fill="#161500"></path><path d="M103.206 29.4377C102.933 30.3394 101.928 30.8546 100.505 30.8546C98.8383 30.8546 97.9317 30.0817 97.7074 28.437L106.608 28.3874V27.4164C106.608 23.354 104.21 20.7877 100.359 20.7877C96.6546 20.7877 94.0811 23.5026 94.0811 27.3867C94.0811 31.2212 96.7326 33.9658 100.427 33.9658C103.79 33.9658 106.218 32.1922 106.656 29.4278H103.206V29.4377ZM100.388 23.8989C101.909 23.8989 102.864 24.7511 102.864 26.0689H97.7659C98.0584 24.5727 98.887 23.8989 100.388 23.8989Z" fill="#161500"></path></g><defs><clipPath id="clip0_910_424"><rect width="106.667" height="40" fill="white"></rect></clipPath></defs></svg>